<?xml version="1.0" encoding="utf-8"?>
<!-- Generator: Adobe Illustrator 22.0.0, SVG Export Plug-In . SVG Version: 6.00 Build 0)  -->
<svg version="1.1" id="Layer_1" xmlns="http://www.w3.org/2000/svg" xmlns:xlink="http://www.w3.org/1999/xlink" x="0px" y="0px"
	 viewBox="0 0 1700 1000" style="enable-background:new 0 0 1700 1000;" xml:space="preserve">
<style type="text/css">
	.st0{fill:#FFBFC7;}
	.st1{fill:#E089AC;}
	.st2{fill:#FFB8CC;}
	.st3{fill:#FDB9B6;}
	.st4{fill:#FFC5C4;}
	.st5{fill:#FFC0B7;}
	.st6{fill:#FFC7B3;}
	.st7{fill:#FFC1BC;}
	.st8{fill:#FFB8C8;}
	.st9{fill:#FEAFC5;}
	.st10{fill:#FFA7BB;}
	.st11{fill:#FFA0B6;}
	.st12{fill:#F193B8;}
	.st13{fill:#EA81AC;}
	.st14{fill:#E685AE;}
	.st15{fill:#E37EAA;}
	.st16{fill:#E895B3;}
	.st17{fill:#FFBEBA;}
	.st18{fill:#FFB1AD;}
</style>
<g>
	<polygon class="st0" points="1237.3,-2.9 1190.1,-2.9 1233.6,10.6 	"/>
	<polygon class="st1" points="1617,130.3 1542.3,-2.9 1445.4,-2.9 1425.3,70.5 	"/>
	<polygon class="st2" points="1653.4,-2.9 1542.3,-2.9 1617,130.3 	"/>
	<polygon class="st3" points="1259.1,-2.9 1237.3,-2.9 1233.6,10.6 	"/>
	<polygon class="st4" points="1425.3,70.5 1445.4,-2.9 1259.1,-2.9 1233.6,10.6 	"/>
	<polygon class="st5" points="1705,-2.9 1700.4,-2.9 1705,5.2 	"/>
	<polygon class="st6" points="1705,157.8 1705,5.2 1700.4,-2.9 1653.4,-2.9 1617,130.3 	"/>
	<polygon class="st7" points="798.3,80.5 751.5,-2.9 613.1,-2.9 606.6,20.7 	"/>
	<polygon class="st8" points="821.2,-2.9 751.5,-2.9 798.3,80.5 	"/>
	<polygon class="st9" points="613.1,-2.9 531,-2.9 606.6,20.7 	"/>
	<polygon class="st10" points="1029.2,-2.9 909.7,-2.9 990,140.3 	"/>
	<polygon class="st0" points="990,140.3 990,140.3 909.7,-2.9 821.2,-2.9 798.3,80.5 	"/>
	<polygon class="st0" points="990,140.3 1181.7,200.2 1233.6,10.6 990,140.3 990,140.3 	"/>
	<polygon class="st11" points="990,140.3 990,140.3 1233.6,10.6 1190.1,-2.9 1029.2,-2.9 990,140.3 	"/>
	<polygon class="st1" points="1565.1,319.9 1425.3,70.5 1373.4,260 	"/>
	<polygon class="st2" points="1617,130.3 1425.3,70.5 1565.1,319.9 	"/>
	<polygon class="st3" points="1425.3,70.5 1233.6,10.6 1181.7,200.2 	"/>
	<polygon class="st4" points="1373.4,260 1425.3,70.5 1181.7,200.2 	"/>
	<polygon class="st5" points="1705,287.2 1705,157.8 1617,130.3 	"/>
	<polygon class="st6" points="1565.1,319.9 1705,363.5 1705,287.2 1617,130.3 	"/>
	<polygon class="st12" points="196.9,-2.9 118.9,-2.9 171.4,90.5 	"/>
	<polygon class="st13" points="171.4,90.5 171.4,90.5 118.9,-2.9 -5,-2.9 -5,35.5 171.4,90.5 	"/>
	<polygon class="st14" points="171.4,90.5 363.1,150.4 405,-2.9 346.9,-2.9 	"/>
	<polygon class="st15" points="171.4,90.5 346.9,-2.9 196.9,-2.9 171.4,90.5 	"/>
	<polygon class="st7" points="746.5,270 606.6,20.7 554.8,210.2 	"/>
	<polygon class="st8" points="798.3,80.5 606.6,20.7 746.5,270 	"/>
	<polygon class="st16" points="606.6,20.7 531,-2.9 405,-2.9 363.1,150.4 	"/>
	<polygon class="st9" points="606.6,20.7 363.1,150.4 554.8,210.2 	"/>
	<polygon class="st10" points="990,140.3 990,140.3 990,140.3 990,140.3 990,140.3 798.3,80.5 938.2,329.9 	"/>
	<polygon class="st0" points="938.2,329.9 938.2,329.9 938.2,329.9 798.3,80.5 746.5,270 	"/>
	<polygon class="st0" points="1129.9,389.7 1181.7,200.2 938.2,329.9 	"/>
	<polygon class="st11" points="1181.7,200.2 990,140.3 990,140.3 938.2,329.9 938.2,329.9 	"/>
	<polygon class="st1" points="1321.6,449.6 1513.3,509.4 1373.4,260 	"/>
	<polygon class="st2" points="1513.3,509.4 1565.1,319.9 1373.4,260 	"/>
	<polygon class="st3" points="1373.4,260 1181.7,200.2 1129.9,389.7 	"/>
	<polygon class="st4" points="1321.6,449.6 1373.4,260 1129.9,389.7 	"/>
	<polygon class="st5" points="1705,569.3 1705,569.2 1705,363.5 1565.1,319.9 	"/>
	<polygon class="st6" points="1705,569.3 1705,569.3 1565.1,319.9 1513.3,509.4 	"/>
	<polygon class="st17" points="1705,569.3 1705,569.3 1705,569.3 	"/>
	<polygon class="st17" points="1705,569.3 1705,569.3 1705,569.3 	"/>
	<polygon class="st18" points="1705,569.3 1705,569.3 1705,569.3 1705,569.2 1705,569.3 	"/>
	<polygon class="st12" points="171.4,90.5 -5,35.5 -5,58 119.5,280.1 	"/>
	<polygon class="st13" points="119.5,280.1 119.5,280.1 -5,58 -5,241.2 119.5,280.1 	"/>
	<polygon class="st14" points="311.2,339.9 363.1,150.4 119.5,280.1 	"/>
	<polygon class="st15" points="363.1,150.4 171.4,90.5 171.4,90.5 119.5,280.1 119.5,280.1 	"/>
	<polygon class="st7" points="694.6,459.6 554.8,210.2 502.9,399.8 	"/>
	<polygon class="st8" points="746.5,270 554.8,210.2 694.6,459.6 	"/>
	<polygon class="st16" points="554.8,210.2 363.1,150.4 311.2,339.9 	"/>
	<polygon class="st9" points="554.8,210.2 311.2,339.9 502.9,399.8 	"/>
	<polygon class="st10" points="938.2,329.9 746.5,270 886.3,519.4 	"/>
	<polygon class="st0" points="886.3,519.4 886.3,519.4 886.3,519.4 746.5,270 694.6,459.6 	"/>
	<polygon class="st0" points="1078,579.3 1129.9,389.7 886.3,519.4 	"/>
	<polygon class="st11" points="886.3,519.4 1129.9,389.7 938.2,329.9 938.2,329.9 886.3,519.4 	"/>
	<polygon class="st1" points="1461.4,699 1321.6,449.6 1269.7,639.1 	"/>
	<polygon class="st2" points="1461.4,699 1513.3,509.4 1321.6,449.6 	"/>
	<polygon class="st3" points="1078,579.3 1321.6,449.6 1129.9,389.7 	"/>
	<polygon class="st4" points="1269.7,639.1 1321.6,449.6 1078,579.3 	"/>
	<polygon class="st5" points="1705,569.3 1513.3,509.4 1653.1,758.8 1705,569.3 1705,569.3 1705,569.3 1705,569.3 	"/>
	<polygon class="st6" points="1653.1,758.8 1653.1,758.8 1653.1,758.8 1513.3,509.4 1461.4,699 	"/>
	<polygon class="st17" points="1653.1,758.8 1705,775 1705,731.2 	"/>
	<polygon class="st18" points="1705,569.3 1653.1,758.8 1653.1,758.8 1705,731.2 1705,569.3 1705,569.3 	"/>
	<polygon class="st12" points="119.5,280.1 -5,241.2 -5,340.1 67.7,469.6 	"/>
	<polygon class="st13" points="67.7,469.6 67.7,469.6 -5,340.1 -5,447 67.7,469.6 	"/>
	<polygon class="st14" points="259.4,529.5 311.2,339.9 67.7,469.6 	"/>
	<polygon class="st15" points="311.2,339.9 119.5,280.1 119.5,280.1 67.7,469.6 67.7,469.6 	"/>
	<polygon class="st7" points="502.9,399.8 451.1,589.3 642.8,649.2 	"/>
	<polygon class="st8" points="502.9,399.8 642.8,649.2 694.6,459.6 	"/>
	<polygon class="st16" points="311.2,339.9 259.4,529.5 502.9,399.8 	"/>
	<polygon class="st9" points="259.4,529.5 451.1,589.3 502.9,399.8 	"/>
	<polygon class="st10" points="886.3,519.4 694.6,459.6 834.5,709 	"/>
	<polygon class="st0" points="834.5,709 694.6,459.6 642.8,649.2 834.5,709 	"/>
	<polygon class="st0" points="834.5,709 834.5,709 834.5,709 1026.2,768.8 1078,579.3 	"/>
	<polygon class="st11" points="834.5,709 834.5,709 1078,579.3 886.3,519.4 886.3,519.4 834.5,709 	"/>
	<polygon class="st1" points="1217.9,828.7 1409.6,888.5 1269.7,639.1 	"/>
	<polygon class="st2" points="1269.7,639.1 1409.6,888.5 1461.4,699 	"/>
	<polygon class="st3" points="1026.2,768.8 1269.7,639.1 1078,579.3 	"/>
	<polygon class="st4" points="1026.2,768.8 1217.9,828.7 1269.7,639.1 	"/>
	<polygon class="st5" points="1601.3,948.4 1653.1,758.8 1461.4,699 	"/>
	<polygon class="st6" points="1409.6,888.5 1601.3,948.4 1601.3,948.4 1601.3,948.4 1461.4,699 	"/>
	<polygon class="st17" points="1601.3,948.4 1705,980.7 1705,893.1 	"/>
	<polygon class="st18" points="1653.1,758.8 1653.1,758.8 1601.3,948.4 1601.3,948.4 1705,893.1 1705,775 	"/>
	<polygon class="st12" points="67.7,469.6 -5,447 -5,622.1 15.8,659.2 	"/>
	<polygon class="st13" points="15.8,659.2 15.8,659.2 -5,622.1 -5,652.7 15.8,659.2 	"/>
	<polygon class="st14" points="15.8,659.2 207.5,719 259.4,529.5 	"/>
	<polygon class="st15" points="259.4,529.5 67.7,469.6 67.7,469.6 15.8,659.2 15.8,659.2 	"/>
	<polygon class="st7" points="399.2,778.9 590.9,838.7 451.1,589.3 	"/>
	<polygon class="st8" points="451.1,589.3 590.9,838.7 642.8,649.2 	"/>
	<polygon class="st16" points="259.4,529.5 207.5,719 451.1,589.3 	"/>
	<polygon class="st9" points="451.1,589.3 207.5,719 399.2,778.9 	"/>
	<polygon class="st10" points="834.5,709 834.5,709 642.8,649.2 782.6,898.5 834.5,709 834.5,709 834.5,709 	"/>
	<polygon class="st0" points="642.8,649.2 590.9,838.7 782.6,898.5 782.6,898.5 	"/>
	<polygon class="st0" points="782.6,898.5 782.6,898.5 782.6,898.5 974.3,958.4 1026.2,768.8 	"/>
	<polygon class="st11" points="1026.2,768.8 834.5,709 834.5,709 782.6,898.5 782.6,898.5 782.6,898.5 	"/>
	<polygon class="st1" points="1170.2,1002.9 1315.6,1002.9 1217.9,828.7 	"/>
	<polygon class="st2" points="1217.9,828.7 1315.6,1002.9 1378.3,1002.9 1409.6,888.5 	"/>
	<polygon class="st3" points="974.3,958.4 1217.9,828.7 1026.2,768.8 	"/>
	<polygon class="st4" points="974.3,958.4 1117.1,1002.9 1170.2,1002.9 1217.9,828.7 	"/>
	<polygon class="st5" points="1409.6,888.5 1473.8,1002.9 1586.4,1002.9 1601.3,948.4 	"/>
	<polygon class="st6" points="1378.3,1002.9 1473.8,1002.9 1409.6,888.5 	"/>
	<polygon class="st18" points="1601.3,948.4 1601.3,948.4 1586.4,1002.9 1705,1002.9 1705,980.7 	"/>
	<polygon class="st12" points="-5,652.7 -5,735.2 15.8,659.2 	"/>
	<polygon class="st14" points="207.5,719 -5,832.2 -5,858.4 155.6,908.6 	"/>
	<polygon class="st15" points="15.8,659.2 15.8,659.2 -5,735.2 -5,832.2 207.5,719 	"/>
	<polygon class="st7" points="347.4,968.4 458,1002.9 524.9,1002.9 399.2,778.9 	"/>
	<polygon class="st8" points="399.2,778.9 524.9,1002.9 546,1002.9 590.9,838.7 	"/>
	<polygon class="st16" points="207.5,719 155.6,908.6 399.2,778.9 	"/>
	<polygon class="st9" points="399.2,778.9 155.6,908.6 347.4,968.4 	"/>
	<polygon class="st10" points="782.6,898.5 782.6,898.5 782.6,898.5 782.6,898.5 590.9,838.7 683,1002.9 754.1,1002.9 782.6,898.5 	
		"/>
	<polygon class="st0" points="546,1002.9 683,1002.9 590.9,838.7 	"/>
	<polygon class="st0" points="890.7,1002.9 962.1,1002.9 974.3,958.4 	"/>
	<polygon class="st11" points="782.6,898.5 782.6,898.5 754.1,1002.9 890.7,1002.9 974.3,958.4 	"/>
	<polygon class="st3" points="962.1,1002.9 1117.1,1002.9 974.3,958.4 	"/>
	<polygon class="st14" points="155.6,908.6 -5,994.1 -5,1002.9 129.8,1002.9 	"/>
	<polygon class="st15" points="-5,858.4 -5,994.1 155.6,908.6 	"/>
	<polygon class="st7" points="337.9,1002.9 366.7,1002.9 347.4,968.4 	"/>
	<polygon class="st8" points="366.7,1002.9 458,1002.9 347.4,968.4 	"/>
	<polygon class="st16" points="155.6,908.6 129.8,1002.9 282.5,1002.9 347.4,968.4 	"/>
	<polygon class="st9" points="282.5,1002.9 337.9,1002.9 347.4,968.4 	"/>
</g>
</svg>
